<?xml version="1.0" encoding="UTF-8"?>
<svg height="16px" viewBox="0 0 16 16" width="16px" xmlns="http://www.w3.org/2000/svg">
    <g fill="#241f31">
        <path d="m 2 0 c -1.109375 0 -2 0.890625 -2 2 v 12 c 0 1.109375 0.890625 2 2 2 h 12 c 1.109375 0 2 -0.890625 2 -2 v -12 c 0 -1.109375 -0.890625 -2 -2 -2 z m 5.128906 2 h 1.742188 c 0.625 0 1.128906 0.503906 1.128906 1.128906 v 9.742188 c 0 0.625 -0.503906 1.128906 -1.128906 1.128906 h -1.742188 c -0.625 0 -1.128906 -0.503906 -1.128906 -1.128906 v -9.742188 c 0 -0.625 0.503906 -1.128906 1.128906 -1.128906 z m 0 0"/>
        <path d="m 7.128906 3 h 1.742188 c 0.625 0 1.128906 0.503906 1.128906 1.128906 v 3.871094 h -4 v -3.871094 c 0 -0.625 0.503906 -1.128906 1.128906 -1.128906 z m 0 0" fill-opacity="0.270588"/>
    </g>
</svg>
