<?xml version="1.0" encoding="UTF-8"?>
<svg height="128px" viewBox="0 0 128 128" width="128px" xmlns="http://www.w3.org/2000/svg" xmlns:xlink="http://www.w3.org/1999/xlink">
    <linearGradient id="a" gradientUnits="userSpaceOnUse" x1="12" x2="116" y1="112" y2="112">
        <stop offset="0" stop-color="#deddda"/>
        <stop offset="0.0384615" stop-color="#f2f1ee"/>
        <stop offset="0.116699" stop-color="#deddda"/>
        <stop offset="0.882287" stop-color="#c4c3c0"/>
        <stop offset="0.940894" stop-color="#edece9"/>
        <stop offset="1" stop-color="#bbbab7"/>
    </linearGradient>
    <linearGradient id="b" gradientTransform="matrix(1 0 0 -1 0 296)" gradientUnits="userSpaceOnUse" x1="68" x2="68" y1="232" y2="210">
        <stop offset="0" stop-color="#241f31"/>
        <stop offset="1" stop-color="#3d3846"/>
    </linearGradient>
    <clipPath id="c">
        <path d="m 50 26 h 28 v 72 h -28 z m 0 0"/>
    </clipPath>
    <clipPath id="d">
        <path d="m 52.726562 26 h 22.546876 c 1.503906 0 2.726562 1.222656 2.726562 2.726562 v 66.546876 c 0 1.503906 -1.222656 2.726562 -2.726562 2.726562 h -22.546876 c -1.503906 0 -2.726562 -1.222656 -2.726562 -2.726562 v -66.546876 c 0 -1.503906 1.222656 -2.726562 2.726562 -2.726562 z m 0 0"/>
    </clipPath>
    <clipPath id="e">
        <path d="m 50 26 h 28 v 34 h -28 z m 0 0"/>
    </clipPath>
    <clipPath id="f">
        <path d="m 52.726562 26 h 22.546876 c 1.503906 0 2.726562 1.222656 2.726562 2.726562 v 66.546876 c 0 1.503906 -1.222656 2.726562 -2.726562 2.726562 h -22.546876 c -1.503906 0 -2.726562 -1.222656 -2.726562 -2.726562 v -66.546876 c 0 -1.503906 1.222656 -2.726562 2.726562 -2.726562 z m 0 0"/>
    </clipPath>
    <clipPath id="g">
        <path d="m 50 30 h 28 v 32 h -28 z m 0 0"/>
    </clipPath>
    <clipPath id="h">
        <path d="m 52.726562 26 h 22.546876 c 1.503906 0 2.726562 1.222656 2.726562 2.726562 v 66.546876 c 0 1.503906 -1.222656 2.726562 -2.726562 2.726562 h -22.546876 c -1.503906 0 -2.726562 -1.222656 -2.726562 -2.726562 v -66.546876 c 0 -1.503906 1.222656 -2.726562 2.726562 -2.726562 z m 0 0"/>
    </clipPath>
    <linearGradient id="i" gradientUnits="userSpaceOnUse" x1="66" x2="66" y1="62" y2="32">
        <stop offset="0" stop-color="#e8e7e1"/>
        <stop offset="1" stop-color="#c0bfbc"/>
    </linearGradient>
    <clipPath id="j">
        <path d="m 50 26 h 28 v 72 h -28 z m 0 0"/>
    </clipPath>
    <clipPath id="k">
        <path d="m 52.726562 26 h 22.546876 c 1.503906 0 2.726562 1.222656 2.726562 2.726562 v 66.546876 c 0 1.503906 -1.222656 2.726562 -2.726562 2.726562 h -22.546876 c -1.503906 0 -2.726562 -1.222656 -2.726562 -2.726562 v -66.546876 c 0 -1.503906 1.222656 -2.726562 2.726562 -2.726562 z m 0 0"/>
    </clipPath>
    <clipPath id="l">
        <path d="m 50 26 h 28 v 34 h -28 z m 0 0"/>
    </clipPath>
    <clipPath id="m">
        <path d="m 52.726562 26 h 22.546876 c 1.503906 0 2.726562 1.222656 2.726562 2.726562 v 66.546876 c 0 1.503906 -1.222656 2.726562 -2.726562 2.726562 h -22.546876 c -1.503906 0 -2.726562 -1.222656 -2.726562 -2.726562 v -66.546876 c 0 -1.503906 1.222656 -2.726562 2.726562 -2.726562 z m 0 0"/>
    </clipPath>
    <clipPath id="n">
        <path d="m 50 30 h 28 v 32 h -28 z m 0 0"/>
    </clipPath>
    <clipPath id="o">
        <path d="m 52.726562 26 h 22.546876 c 1.503906 0 2.726562 1.222656 2.726562 2.726562 v 66.546876 c 0 1.503906 -1.222656 2.726562 -2.726562 2.726562 h -22.546876 c -1.503906 0 -2.726562 -1.222656 -2.726562 -2.726562 v -66.546876 c 0 -1.503906 1.222656 -2.726562 2.726562 -2.726562 z m 0 0"/>
    </clipPath>
    <clipPath id="p">
        <rect height="128" width="128"/>
    </clipPath>
    <clipPath id="q">
        <rect height="128" width="128"/>
    </clipPath>
    <filter id="r" height="100%" width="100%" x="0%" y="0%">
        <feColorMatrix in="SourceGraphic" type="matrix" values="0 0 0 0 1 0 0 0 0 1 0 0 0 0 1 0 0 0 1 0"/>
    </filter>
    <mask id="s">
        <g clip-path="url(#q)" filter="url(#r)">
            <g clip-path="url(#p)">
                <path d="m 20 16 h 88 c 4.417969 0 8 3.582031 8 8 v 84 c 0 4.417969 -3.582031 8 -8 8 h -88 c -4.417969 0 -8 -3.582031 -8 -8 v -84 c 0 -4.417969 3.582031 -8 8 -8 z m 0 0" fill="url(#a)"/>
                <path d="m 20 12 h 88 c 4.417969 0 8 3.582031 8 8 v 84 c 0 4.417969 -3.582031 8 -8 8 h -88 c -4.417969 0 -8 -3.582031 -8 -8 v -84 c 0 -4.417969 3.582031 -8 8 -8 z m 0 0" fill="#f6f5f4"/>
                <path d="m 52.496094 22 h 23.007812 c 3.589844 0 6.496094 2.90625 6.496094 6.496094 v 67.007812 c 0 3.589844 -2.90625 6.496094 -6.496094 6.496094 h -23.007812 c -3.589844 0 -6.496094 -2.90625 -6.496094 -6.496094 v -67.007812 c 0 -3.589844 2.90625 -6.496094 6.496094 -6.496094 z m 0 0" fill="#deddda"/>
                <path d="m 52.496094 100 h 23.007812 c 2.484375 0 4.496094 -2.011719 4.496094 -4.496094 v -67.007812 c 0 -2.484375 -2.011719 -4.496094 -4.496094 -4.496094 h -23.007812 c -2.484375 0 -4.496094 2.011719 -4.496094 4.496094 v 67.007812 c 0 2.484375 2.011719 4.496094 4.496094 4.496094 z m 0 0" fill="url(#b)"/>
                <g clip-path="url(#j)">
                    <g clip-path="url(#k)">
                        <path d="m 52.726562 26 h 22.546876 c 1.503906 0 2.726562 1.222656 2.726562 2.726562 v 66.546876 c 0 1.503906 -1.222656 2.726562 -2.726562 2.726562 h -22.546876 c -1.503906 0 -2.726562 -1.222656 -2.726562 -2.726562 v -66.546876 c 0 -1.503906 1.222656 -2.726562 2.726562 -2.726562 z m 0 0" fill="#f6f5f4"/>
                    </g>
                </g>
                <g clip-path="url(#l)">
                    <g clip-path="url(#m)">
                        <path d="m 52.726562 25.636719 h 22.546876 c 1.511718 0 2.726562 1.214843 2.726562 2.726562 v 31.273438 h -28 v -31.273438 c 0 -1.511719 1.214844 -2.726562 2.726562 -2.726562 z m 0 0" fill="#d5d4d1"/>
                    </g>
                </g>
                <g clip-path="url(#n)">
                    <g clip-path="url(#o)">
                        <path d="m 52.726562 30 h 22.546876 c 1.511718 0 2.726562 1.214844 2.726562 2.726562 v 29.273438 h -28 v -29.273438 c 0 -1.511718 1.214844 -2.726562 2.726562 -2.726562 z m 0 0" fill="url(#i)"/>
                    </g>
                </g>
                <path d="m 32 64 c 0 2.210938 -1.789062 4 -4 4 s -4 -1.789062 -4 -4 s 1.789062 -4 4 -4 s 4 1.789062 4 4 z m 0 0" fill="#deddda"/>
                <path d="m 32 62 c 0 2.210938 -1.789062 4 -4 4 s -4 -1.789062 -4 -4 s 1.789062 -4 4 -4 s 4 1.789062 4 4 z m 0 0" fill="#ffffff"/>
                <path d="m 104 64 c 0 2.210938 -1.789062 4 -4 4 s -4 -1.789062 -4 -4 s 1.789062 -4 4 -4 s 4 1.789062 4 4 z m 0 0" fill="#deddda"/>
                <path d="m 104 62 c 0 2.210938 -1.789062 4 -4 4 s -4 -1.789062 -4 -4 s 1.789062 -4 4 -4 s 4 1.789062 4 4 z m 0 0" fill="#ffffff"/>
            </g>
        </g>
    </mask>
    <mask id="t">
        <g filter="url(#r)">
            <rect fill-opacity="0.8" height="128" width="128"/>
        </g>
    </mask>
    <linearGradient id="u" gradientTransform="matrix(0 0.37 -0.98462 0 295.38501 -30.360001)" gradientUnits="userSpaceOnUse" x1="300" x2="428" y1="235" y2="235">
        <stop offset="0" stop-color="#f9f06b"/>
        <stop offset="1" stop-color="#f5c211"/>
    </linearGradient>
    <clipPath id="v">
        <rect height="128" width="128"/>
    </clipPath>
    <clipPath id="w">
        <rect height="128" width="128"/>
    </clipPath>
    <path d="m 20 16 h 88 c 4.417969 0 8 3.582031 8 8 v 84 c 0 4.417969 -3.582031 8 -8 8 h -88 c -4.417969 0 -8 -3.582031 -8 -8 v -84 c 0 -4.417969 3.582031 -8 8 -8 z m 0 0" fill="url(#a)"/>
    <path d="m 20 12 h 88 c 4.417969 0 8 3.582031 8 8 v 84 c 0 4.417969 -3.582031 8 -8 8 h -88 c -4.417969 0 -8 -3.582031 -8 -8 v -84 c 0 -4.417969 3.582031 -8 8 -8 z m 0 0" fill="#f6f5f4"/>
    <path d="m 52.496094 22 h 23.007812 c 3.589844 0 6.496094 2.90625 6.496094 6.496094 v 67.007812 c 0 3.589844 -2.90625 6.496094 -6.496094 6.496094 h -23.007812 c -3.589844 0 -6.496094 -2.90625 -6.496094 -6.496094 v -67.007812 c 0 -3.589844 2.90625 -6.496094 6.496094 -6.496094 z m 0 0" fill="#deddda"/>
    <path d="m 52.496094 100 h 23.007812 c 2.484375 0 4.496094 -2.011719 4.496094 -4.496094 v -67.007812 c 0 -2.484375 -2.011719 -4.496094 -4.496094 -4.496094 h -23.007812 c -2.484375 0 -4.496094 2.011719 -4.496094 4.496094 v 67.007812 c 0 2.484375 2.011719 4.496094 4.496094 4.496094 z m 0 0" fill="url(#b)"/>
    <g clip-path="url(#c)">
        <g clip-path="url(#d)">
            <path d="m 52.726562 26 h 22.546876 c 1.503906 0 2.726562 1.222656 2.726562 2.726562 v 66.546876 c 0 1.503906 -1.222656 2.726562 -2.726562 2.726562 h -22.546876 c -1.503906 0 -2.726562 -1.222656 -2.726562 -2.726562 v -66.546876 c 0 -1.503906 1.222656 -2.726562 2.726562 -2.726562 z m 0 0" fill="#f6f5f4"/>
        </g>
    </g>
    <g clip-path="url(#e)">
        <g clip-path="url(#f)">
            <path d="m 52.726562 25.636719 h 22.546876 c 1.511718 0 2.726562 1.214843 2.726562 2.726562 v 31.273438 h -28 v -31.273438 c 0 -1.511719 1.214844 -2.726562 2.726562 -2.726562 z m 0 0" fill="#d5d4d1"/>
        </g>
    </g>
    <g clip-path="url(#g)">
        <g clip-path="url(#h)">
            <path d="m 52.726562 30 h 22.546876 c 1.511718 0 2.726562 1.214844 2.726562 2.726562 v 29.273438 h -28 v -29.273438 c 0 -1.511718 1.214844 -2.726562 2.726562 -2.726562 z m 0 0" fill="url(#i)"/>
        </g>
    </g>
    <path d="m 32 64 c 0 2.210938 -1.789062 4 -4 4 s -4 -1.789062 -4 -4 s 1.789062 -4 4 -4 s 4 1.789062 4 4 z m 0 0" fill="#deddda"/>
    <path d="m 32 62 c 0 2.210938 -1.789062 4 -4 4 s -4 -1.789062 -4 -4 s 1.789062 -4 4 -4 s 4 1.789062 4 4 z m 0 0" fill="#ffffff"/>
    <path d="m 104 64 c 0 2.210938 -1.789062 4 -4 4 s -4 -1.789062 -4 -4 s 1.789062 -4 4 -4 s 4 1.789062 4 4 z m 0 0" fill="#deddda"/>
    <path d="m 104 62 c 0 2.210938 -1.789062 4 -4 4 s -4 -1.789062 -4 -4 s 1.789062 -4 4 -4 s 4 1.789062 4 4 z m 0 0" fill="#ffffff"/>
    <g clip-path="url(#w)" mask="url(#s)">
        <g clip-path="url(#v)" mask="url(#t)">
            <path d="m 128 80.640625 v 47.359375 h -128 v -47.359375 z m 0 0" fill="url(#u)"/>
            <path d="m 13.308594 80.640625 l 47.355468 47.359375 h 21.214844 l -47.359375 -47.359375 z m 42.421875 0 l 47.363281 47.359375 h 21.214844 l -47.363282 -47.359375 z m 42.429687 0 l 29.839844 29.839844 v -21.210938 l -8.628906 -8.628906 z m -98.160156 7.90625 v 21.214844 l 18.238281 18.238281 h 21.214844 z m 0 0"/>
        </g>
    </g>
</svg>
